#tb 0: 1/25
0,          0,          0,        1,   196608, 0xa2899af1
0,          1,          1,        1,   196608, 0x26409af1
0,          2,          2,        1,   196608, 0xf5209af1
